{"accessors" : [{"bufferView" : 0, "byteOffset" : 0, "componentType" : 5123, "count" : 2064, "type" : "SCALAR", "max" : [2063], "min" : [0]}, {"bufferView" : 1, "byteOffset" : 0, "componentType" : 5126, "count" : 2064, "type" : "VEC3", "max" : [3.669088363647461, 9.9102783203125, 3.9999985694885254], "min" : [-2.7975311279296875, -9.9102783203125, 0], "name" : "POSITION"}, {"bufferView" : 1, "byteOffset" : 12, "componentType" : 5126, "count" : 2064, "type" : "VEC3", "max" : [1.0000044107437134, 1.0000044107437134, 1.0000044107437134], "min" : [-1.0000044107437134, -1.0000044107437134, -1.0000044107437134], "name" : "NORMAL"}, {"bufferView" : 1, "byteOffset" : 24, "componentType" : 5126, "count" : 2064, "type" : "VEC2", "max" : [1, -0], "min" : [0, -1], "name" : "TEXCOORD_0"}, {"bufferView" : 0, "byteOffset" : 4128, "componentType" : 5123, "count" : 456, "type" : "SCALAR", "max" : [455], "min" : [0]}, {"bufferView" : 2, "byteOffset" : 0, "componentType" : 5126, "count" : 456, "type" : "VEC3", "max" : [10.506790161132812, 38.19781494140625, 7.6881914138793945], "min" : [-10.506790161132812, -38.19781494140625, -1.111818790435791], "name" : "POSITION"}, {"bufferView" : 2, "byteOffset" : 12, "componentType" : 5126, "count" : 456, "type" : "VEC3", "max" : [1.0000044107437134, 1.0000044107437134, 1.0000044107437134], "min" : [-1.0000044107437134, -1.0000044107437134, -1.0000044107437134], "name" : "NORMAL"}, {"bufferView" : 2, "byteOffset" : 24, "componentType" : 5126, "count" : 456, "type" : "VEC2", "max" : [1, -0], "min" : [0, -1], "name" : "TEXCOORD_0"}, {"bufferView" : 0, "byteOffset" : 5040, "componentType" : 5123, "count" : 10170, "type" : "SCALAR", "max" : [10165], "min" : [0]}, {"bufferView" : 3, "byteOffset" : 0, "componentType" : 5126, "count" : 10166, "type" : "VEC3", "max" : [0.030985072255134583, -0.0050779180601239204, 5.316734313964844E-05], "min" : [0.0009829517221078277, -0.01120164804160595, 0], "name" : "POSITION"}, {"bufferView" : 3, "byteOffset" : 12, "componentType" : 5126, "count" : 10166, "type" : "VEC3", "max" : [1.0000044107437134, 1.0000044107437134, 1.0000044107437134], "min" : [-1.0000044107437134, -1.0000044107437134, -4.6419860154855996E-05], "name" : "NORMAL"}, {"bufferView" : 0, "byteOffset" : 25380, "componentType" : 5125, "count" : 1038297, "type" : "SCALAR", "max" : [1038296], "min" : [0]}, {"bufferView" : 4, "byteOffset" : 0, "componentType" : 5126, "count" : 1038297, "type" : "VEC3", "max" : [128.80067443847656, 100.02935791015625, 54.18805694580078], "min" : [-128.80067443847656, -100.02935791015625, -1], "name" : "POSITION"}, {"bufferView" : 4, "byteOffset" : 12, "componentType" : 5126, "count" : 1038297, "type" : "VEC3", "max" : [1.0000044107437134, 1.0000044107437134, 1.0000044107437134], "min" : [-1.0000044107437134, -1.0000044107437134, -1.0000044107437134], "name" : "NORMAL"}, {"bufferView" : 4, "byteOffset" : 24, "componentType" : 5126, "count" : 1038297, "type" : "VEC2", "max" : [1, -0], "min" : [0, -1], "name" : "TEXCOORD_0"}], "asset" : {"generator" : "Aspose.3D 21.4", "version" : "2.0"}, "buffers" : [{"uri" : "buffer.bin", "byteLength" : 37728812}], "bufferViews" : [{"buffer" : 0, "byteOffset" : 0, "byteLength" : 4178568, "target" : 34963}, {"buffer" : 0, "byteOffset" : 4178572, "byteLength" : 66048, "byteStride" : 32, "target" : 34962}, {"buffer" : 0, "byteOffset" : 4244624, "byteLength" : 14592, "byteStride" : 32, "target" : 34962}, {"buffer" : 0, "byteOffset" : 4259220, "byteLength" : 244080, "byteStride" : 24, "target" : 34962}, {"buffer" : 0, "byteOffset" : 4503304, "byteLength" : 33225504, "byteStride" : 32, "target" : 34962}], "materials" : [{"pbrMetallicRoughness" : {"baseColorFactor" : [0, 0, 0, 1], "metallicFactor" : 0, "roughnessFactor" : 0}, "emissiveFactor" : [0, 0, 0], "alphaMode" : "OPAQUE", "doubleSided" : false}, {"pbrMetallicRoughness" : {"baseColorFactor" : [0, 0, 0, 1], "metallicFactor" : 0, "roughnessFactor" : 0}, "emissiveFactor" : [0, 0, 0], "alphaMode" : "OPAQUE", "doubleSided" : false}, {"pbrMetallicRoughness" : {"baseColorFactor" : [0, 0, 0, 1], "metallicFactor" : 0, "roughnessFactor" : 0}, "emissiveFactor" : [0, 0, 0], "alphaMode" : "OPAQUE", "doubleSided" : false}, {"pbrMetallicRoughness" : {"baseColorFactor" : [0, 0, 0, 1], "metallicFactor" : 0, "roughnessFactor" : 0}, "emissiveFactor" : [0, 0, 0], "alphaMode" : "OPAQUE", "doubleSided" : false}], "meshes" : [{"primitives" : [{"attributes" : {"POSITION" : 1, "NORMAL" : 2, "TEXCOORD_0" : 3}, "indices" : 0, "material" : 0, "mode" : 4}]}, {"primitives" : [{"attributes" : {"POSITION" : 5, "NORMAL" : 6, "TEXCOORD_0" : 7}, "indices" : 4, "material" : 1, "mode" : 4}]}, {"primitives" : [{"attributes" : {"POSITION" : 9, "NORMAL" : 10}, "indices" : 8, "material" : 2, "mode" : 4}]}, {"primitives" : [{"attributes" : {"POSITION" : 12, "NORMAL" : 13, "TEXCOORD_0" : 14}, "indices" : 11, "material" : 3, "mode" : 4}]}], "nodes" : [{"matrix" : [1, 0, 0, 0, 0, 1, 0, 0, 0, 0, 1, 0, -25.43145751953125, 89.783935546875, -26.59402847290039, 1], "mesh" : 0, "name" : "Box001"}, {"matrix" : [1, 0, 0, 0, 0, 1, 0, 0, 0, 0, 1, 0, 51.43304443359375, -57.95062255859375, -25.682212829589844, 1], "mesh" : 1, "name" : "Parkhaus"}, {"matrix" : [-0.00010867153489322748, 2486.1149899999978, 0, 0, -2486.1149899999978, -0.00010867153489322748, 0, 0, 0, 0, 2486.11499, 0, 95.76234321809136, -97.92107565411831, -26.59402847290039, 1], "mesh" : 2, "name" : "Shape1"}, {"matrix" : [1, 0, 0, 0, 0, 1, 0, 0, 0, 0, 1, 0, 0, 0, -26.59402847290039, 1], "mesh" : 3, "name" : "Plane001"}, {"children" : [0, 1, 2, 3], "matrix" : [1, 0, 0, 0, 0, 2.220446049250313E-16, -1, 0, 0, 1, 2.220446049250313E-16, 0, -13.346038818359375, 26.59402847290039, -7.4595947265625, 1], "name" : "Master"}], "scene" : 0, "scenes" : [{"nodes" : [4]}]}