<?xml version="1.0" encoding="utf-8"?>
<!-- Generator: Adobe Illustrator 25.0.1, SVG Export Plug-In . SVG Version: 6.00 Build 0)  -->
<svg version="1.1" id="Ebene_1" xmlns="http://www.w3.org/2000/svg" xmlns:xlink="http://www.w3.org/1999/xlink" x="0px" y="0px"
	 viewBox="0 0 57.8 25.4" style="enable-background:new 0 0 57.8 25.4;" xml:space="preserve">
<path d="M0.4,11.8L0.4,11.8c0-0.1,0-0.1,0.1-0.2c0-0.1,0.1-0.1,0.1-0.1L13.8,0.3c0.6-0.5,1.6-0.4,2.1,0.2s0.4,1.6-0.2,2.1L5.6,11.2
	h50.7c0.8,0,1.5,0.7,1.5,1.5s-0.7,1.5-1.5,1.5H5.6l10.1,8.6c0.7,0.5,0.7,1.5,0.2,2.1c-0.3,0.3-0.7,0.5-1.1,0.5s-0.7-0.1-1-0.3
	L0.4,13.8l0,0c0-0.1-0.1-0.1-0.1-0.2l0,0C0.1,13.4,0,13,0,12.7C0,12.4,0.1,12.1,0.4,11.8z"/>
</svg>
